<?xml version="1.0" encoding="UTF-8"?>
<svg id="Camada_2" xmlns="http://www.w3.org/2000/svg" viewBox="0 0 627.32 395.64">
  <defs>
    <style>
      .cls-1 {
        fill: #fffcf9;
      }
    </style>
  </defs>
  <g id="Camada_1-2" data-name="Camada_1">
    <g>
      <path class="cls-1" d="M571.67,256.47h-2.6c-.1-1.01-.25-2.02-.41-3.03C548.93,96.59,395.32-11.22,241.35,24.33,156.3,42.94,82.64,105.91,51.12,186.89c-7.09,17.96-12.35,36.67-15.29,55.71-.86,4.6-1.32,9.24-1.82,13.87H0c.16-1.76.38-3.51.65-5.23.62-4.3,1.34-10.15,2.26-14.31C46.51,6.04,328.91-80.36,493.32,87.73c41.69,43.14,69.04,99.29,77.17,158.58.43,3.41.76,6.79,1.18,10.17Z"/>
      <path class="cls-1" d="M627.32,315.57v1.84s0,.1-.01.14h0c-.02.13-.07.24-.14.35-.05.08-.12.15-.2.21h0c-.1.07-.21.12-.33.15t0,0c-.06.01-.11.02-.17.02h-2.13s-25.44-.05-25.44-.05c-7.33,0-13.88,2.92-18.64,7.76-4.77,4.77-7.76,11.39-7.76,18.65v50.24c0,.42-.36.78-.78.78h-2.06c-.43,0-.78-.36-.78-.78v-50.24c0-7.26-2.99-13.88-7.76-18.65-4.77-4.84-11.32-7.76-18.64-7.76h-27.64c-.42,0-.78-.36-.78-.78v-1.92c0-.43.36-.85.78-.85h27.64c7.11,0,13.57-2.83,18.32-7.49.1-.1.23-.17.32-.27,4.77-4.77,7.76-11.39,7.76-18.64v-23.84c0-.43.36-.78.78-.78h2.06c.43,0,.78.36.78.78v23.84c0,7.26,2.99,13.88,7.76,18.64.1.1.22.17.32.27,4.74,4.66,11.21,7.49,18.32,7.49l25.43.05h2.21s.01,0,.02,0c.2.02.38.11.51.24.01.01.03.03.04.04,0,.01.02.02.03.03.02.02.03.04.05.07.02.02.03.05.04.07.01.02.02.05.03.07,0,.03.02.05.03.08.02.08.03.16.03.24Z"/>
    </g>
  </g>
</svg>