<?xml version="1.0" encoding="UTF-8"?>
<svg id="Camada_2" xmlns="http://www.w3.org/2000/svg" xmlns:xlink="http://www.w3.org/1999/xlink" viewBox="0 0 1366 768">
  <defs>
    <style>
      .cls-1 {
        fill: #fffcf9;
      }

      .cls-2 {
        fill: none;
      }

      .cls-3 {
        fill: url(#Heavens_2b);
      }

      .cls-4 {
        fill: #e89506;
      }
    </style>
    <pattern id="Heavens_2b" data-name="Heavens 2b" x="0" y="0" width="251.35" height="146.46" patternTransform="translate(-4284 -1652.42)" patternUnits="userSpaceOnUse" viewBox="0 0 251.35 146.46">
      <g>
        <rect class="cls-2" width="251.35" height="146.46"/>
        <g>
          <path class="cls-4" d="M245.81,83.28v3.36c-15.7,1.99-29.95,12.85-35.59,27.71-1.54,3.92-2.49,8.05-2.83,12.23h-5.78c2.7-24.78,22.54-41.38,44.2-43.3Z"/>
          <path class="cls-1" d="M314.19,130.85v2.05c0,.05,0,.11-.01.16h0c-.02.14-.08.27-.16.38-.06.09-.14.17-.22.23h0c-.11.08-.23.14-.37.16t0,0c-.06.01-.13.02-.19.02h-2.36s-28.22-.06-28.22-.06c-8.13,0-15.39,3.24-20.68,8.61-5.29,5.29-8.61,12.63-8.61,20.69v55.74c0,.47-.39.87-.87.87h-2.29c-.48,0-.87-.4-.87-.87v-55.74c0-8.05-3.32-15.4-8.61-20.69-5.29-5.37-12.55-8.61-20.68-8.61h-30.67c-.47,0-.87-.39-.87-.87v-2.13c0-.47.39-.95.87-.95h30.67c7.88,0,15.06-3.14,20.32-8.31.11-.11.25-.19.36-.3,5.29-5.29,8.61-12.63,8.61-20.68v-26.45c0-.47.39-.87.87-.87h2.29c.48,0,.87.4.87.87v26.45c0,8.05,3.32,15.4,8.61,20.68.11.11.25.19.36.3,5.26,5.17,12.44,8.31,20.32,8.31l28.22.05h2.45s.01,0,.02,0c.22.02.42.12.57.27.02.02.03.03.05.05.01.01.02.03.03.04.02.03.04.05.05.08.02.03.03.05.05.08.01.03.03.05.04.08.01.03.02.06.03.09.03.08.04.17.04.26Z"/>
        </g>
        <g>
          <path class="cls-4" d="M47.72,126.59h-.61c-2.42-21.34-20.19-38.65-41.62-40.18v-3.06c10.33,1.07,20.6,5.62,29.18,14.31,7.55,7.77,12.2,18.18,13.05,28.93Z"/>
          <path class="cls-1" d="M62.84,130.85v2.05c0,.05,0,.11-.01.16h0c-.02.14-.08.27-.16.38-.06.09-.14.17-.22.23h0c-.11.08-.23.14-.37.16t0,0c-.06.01-.13.02-.19.02h-2.36s-28.22-.06-28.22-.06c-8.13,0-15.39,3.24-20.68,8.61-5.29,5.29-8.61,12.63-8.61,20.69v55.74c0,.47-.39.87-.87.87H-1.15c-.48,0-.87-.4-.87-.87v-55.74c0-8.05-3.32-15.4-8.61-20.69-5.29-5.37-12.55-8.61-20.68-8.61h-30.67c-.47,0-.87-.39-.87-.87v-2.13c0-.47.39-.95.87-.95h30.67c7.88,0,15.06-3.14,20.32-8.31.11-.11.25-.19.36-.3,5.29-5.29,8.61-12.63,8.61-20.68v-26.45c0-.47.39-.87.87-.87H1.14c.48,0,.87.4.87.87v26.45c0,8.05,3.32,15.4,8.61,20.68.11.11.25.19.36.3,5.26,5.17,12.44,8.31,20.32,8.31l28.22.05h2.45s.01,0,.02,0c.22.02.42.12.57.27.02.02.03.03.05.05.01.01.02.03.03.04.02.03.04.05.05.08.02.03.03.05.05.08.01.03.03.05.04.08.01.03.02.06.03.09.03.08.04.17.04.26Z"/>
        </g>
        <path class="cls-1" d="M314.19-15.61v2.05c0,.05,0,.11-.01.16h0c-.02.14-.08.27-.16.38-.06.09-.14.17-.22.23h0c-.11.08-.23.14-.37.16t0,0c-.06.01-.13.02-.19.02h-2.36s-28.22-.06-28.22-.06c-8.13,0-15.39,3.24-20.68,8.61-5.29,5.29-8.61,12.63-8.61,20.69v55.74c0,.47-.39.87-.87.87h-2.29c-.48,0-.87-.4-.87-.87V16.62c0-8.05-3.32-15.4-8.61-20.69-5.29-5.37-12.55-8.61-20.68-8.61h-30.67c-.47,0-.87-.39-.87-.87v-2.13c0-.47.39-.95.87-.95h30.67c7.88,0,15.06-3.14,20.32-8.31.11-.11.25-.19.36-.3,5.29-5.29,8.61-12.63,8.61-20.68v-26.45c0-.47.39-.87.87-.87h2.29c.48,0,.87.4.87.87v26.45c0,8.05,3.32,15.4,8.61,20.68.11.11.25.19.36.3,5.26,5.17,12.44,8.31,20.32,8.31l28.22.05h2.45s.01,0,.02,0c.22.02.42.12.57.27.02.02.03.03.05.05.01.01.02.03.03.04.02.03.04.05.05.08.02.03.03.05.05.08.01.03.03.05.04.08.01.03.02.06.03.09.03.08.04.17.04.26Z"/>
        <g>
          <g>
            <path class="cls-4" d="M120.13,10.05v3.36c-15.7,1.99-29.95,12.85-35.59,27.71-1.54,3.92-2.49,8.05-2.83,12.23h-5.78c2.7-24.78,22.54-41.38,44.2-43.3Z"/>
            <path class="cls-4" d="M173.4,53.36h-.61c-2.42-21.34-20.19-38.65-41.62-40.18v-3.06c10.33,1.07,20.6,5.62,29.18,14.31,7.55,7.77,12.2,18.18,13.05,28.93Z"/>
          </g>
          <path class="cls-1" d="M188.51,57.62v2.05c0,.05,0,.11-.01.16h0c-.02.14-.08.27-.16.38-.06.09-.14.17-.22.23h0c-.11.08-.23.14-.37.16t0,0c-.06.01-.13.02-.19.02h-2.36s-28.22-.06-28.22-.06c-8.13,0-15.39,3.24-20.68,8.61-5.29,5.29-8.61,12.63-8.61,20.69v55.74c0,.47-.39.87-.87.87h-2.29c-.48,0-.87-.4-.87-.87v-55.74c0-8.05-3.32-15.4-8.61-20.69-5.29-5.37-12.55-8.61-20.68-8.61h-30.67c-.47,0-.87-.39-.87-.87v-2.13c0-.47.39-.95.87-.95h30.67c7.88,0,15.06-3.14,20.32-8.31.11-.11.25-.19.36-.3,5.29-5.29,8.61-12.63,8.61-20.68V.87C123.66.4,124.05,0,124.53,0h2.29c.48,0,.87.4.87.87v26.45c0,8.05,3.32,15.4,8.61,20.68.11.11.25.19.36.3,5.26,5.17,12.44,8.31,20.32,8.31l28.22.05h2.45s.01,0,.02,0c.22.02.42.12.57.27.02.02.03.03.05.05.01.01.02.03.03.04.02.03.04.05.05.08.02.03.03.05.05.08.01.03.03.05.04.08.01.03.02.06.03.09.03.08.04.17.04.26Z"/>
        </g>
        <path class="cls-1" d="M62.84-15.61v2.05c0,.05,0,.11-.01.16h0c-.02.14-.08.27-.16.38-.06.09-.14.17-.22.23h0c-.11.08-.23.14-.37.16t0,0c-.06.01-.13.02-.19.02h-2.36s-28.22-.06-28.22-.06c-8.13,0-15.39,3.24-20.68,8.61C5.33,1.22,2.01,8.57,2.01,16.62v55.74c0,.47-.39.87-.87.87H-1.15c-.48,0-.87-.4-.87-.87V16.62C-2.02,8.57-5.33,1.22-10.62-4.07c-5.29-5.37-12.55-8.61-20.68-8.61h-30.67c-.47,0-.87-.39-.87-.87v-2.13c0-.47.39-.95.87-.95h30.67c7.88,0,15.06-3.14,20.32-8.31.11-.11.25-.19.36-.3,5.29-5.29,8.61-12.63,8.61-20.68v-26.45c0-.47.39-.87.87-.87H1.14c.48,0,.87.4.87.87v26.45c0,8.05,3.32,15.4,8.61,20.68.11.11.25.19.36.3,5.26,5.17,12.44,8.31,20.32,8.31l28.22.05h2.45s.01,0,.02,0c.22.02.42.12.57.27.02.02.03.03.05.05.01.01.02.03.03.04.02.03.04.05.05.08.02.03.03.05.05.08.01.03.03.05.04.08.01.03.02.06.03.09.03.08.04.17.04.26Z"/>
      </g>
    </pattern>
  </defs>
  <g id="Camada_1-2" data-name="Camada_1">
    <rect class="cls-3" width="1366" height="768"/>
  </g>
</svg>