<?xml version="1.0" encoding="UTF-8"?>
<svg id="Camada_2" xmlns="http://www.w3.org/2000/svg" xmlns:xlink="http://www.w3.org/1999/xlink" viewBox="0 0 1366 768">
  <defs>
    <style>
      .cls-1 {
        fill: #fffcf9;
      }

      .cls-2 {
        fill: url(#Heavens_1b);
      }

      .cls-3 {
        fill: none;
      }
    </style>
    <pattern id="Heavens_1b" data-name="Heavens 1b" x="0" y="0" width="110.22" height="110.17" patternTransform="translate(-5703.67 -1660.24)" patternUnits="userSpaceOnUse" viewBox="0 0 110.22 110.17">
      <g>
        <rect class="cls-3" width="110.22" height="110.17"/>
        <path class="cls-1" d="M205.52,102.99l1.67,1.67s.08.09.12.14h0c.09.14.16.28.18.44.02.12.02.25,0,.37h0c-.02.15-.08.3-.17.43t0,0c-.04.06-.09.12-.14.17l-.86.86-1.07,1.07-23.04,22.96c-6.62,6.63-9.91,15.19-9.84,23.87,0,8.62,3.28,17.31,9.85,23.87l45.43,45.43c.38.38.39,1.03,0,1.42l-1.87,1.87c-.39.39-1.03.39-1.42,0l-45.43-45.43c-6.56-6.56-15.25-9.85-23.87-9.85-8.69-.06-17.25,3.22-23.87,9.84l-24.99,24.99c-.38.38-1.03.38-1.41,0l-1.74-1.74c-.39-.39-.45-1.09-.06-1.48l24.99-24.99c6.43-6.43,9.72-14.83,9.8-23.33,0-.18.05-.36.05-.54,0-8.62-3.28-17.31-9.84-23.87l-21.56-21.56c-.39-.39-.39-1.03,0-1.42l1.87-1.87c.39-.39,1.03-.39,1.42,0l21.56,21.56c6.56,6.56,15.25,9.85,23.87,9.84.18,0,.36-.05.54-.05,8.5-.08,16.91-3.37,23.33-9.8l23.04-22.95.14-.14,1.85-1.85s.01-.01.02-.01c.2-.16.44-.24.68-.24.02,0,.05,0,.08,0,.02,0,.04,0,.06,0,.04,0,.07.01.1.02.04,0,.07.02.1.03.03.01.06.02.09.04.03.01.06.03.09.05.09.05.17.11.25.18Z"/>
        <path class="cls-1" d="M95.3,102.99l1.67,1.67s.08.09.12.14h0c.09.14.16.28.18.44.02.12.02.25,0,.37h0c-.02.15-.08.3-.17.43t0,0c-.04.06-.09.12-.14.17l-.86.86-1.07,1.07-23.04,22.96c-6.62,6.63-9.91,15.19-9.84,23.87,0,8.62,3.28,17.31,9.85,23.87l45.43,45.43c.38.38.39,1.03,0,1.42l-1.87,1.87c-.39.39-1.03.39-1.42,0l-45.43-45.43c-6.56-6.56-15.25-9.85-23.87-9.85-8.69-.06-17.25,3.22-23.87,9.84l-24.99,24.99c-.38.38-1.03.38-1.41,0l-1.74-1.74c-.39-.39-.45-1.09-.06-1.48l24.99-24.99c6.43-6.43,9.72-14.83,9.8-23.33,0-.18.05-.36.05-.54,0-8.62-3.28-17.31-9.84-23.87L-3.81,109.59c-.39-.39-.39-1.03,0-1.42l1.87-1.87c.39-.39,1.03-.39,1.42,0l21.56,21.56c6.56,6.56,15.25,9.85,23.87,9.84.18,0,.36-.05.54-.05,8.5-.08,16.91-3.37,23.33-9.8l23.04-22.95.14-.14,1.85-1.85s.01-.01.02-.01c.2-.16.44-.24.68-.24.02,0,.05,0,.08,0,.02,0,.04,0,.06,0,.04,0,.07.01.1.02.04,0,.07.02.1.03.03.01.06.02.09.04.03.01.06.03.09.05.09.05.17.11.25.18Z"/>
        <path class="cls-1" d="M-14.92,102.99l1.67,1.67s.08.09.12.14h0c.09.14.16.28.18.44.02.12.02.25,0,.37h0c-.02.15-.08.3-.17.43t0,0c-.04.06-.09.12-.14.17l-.86.86-1.07,1.07-23.04,22.96c-6.62,6.63-9.91,15.19-9.84,23.87,0,8.62,3.28,17.31,9.85,23.87L7.21,224.26c.38.38.39,1.03,0,1.42l-1.87,1.87c-.39.39-1.03.39-1.42,0l-45.43-45.43c-6.56-6.56-15.25-9.85-23.87-9.85-8.69-.06-17.25,3.22-23.87,9.84l-24.99,24.99c-.38.38-1.03.38-1.41,0l-1.74-1.74c-.39-.39-.45-1.09-.06-1.48l24.99-24.99c6.43-6.43,9.72-14.83,9.8-23.33,0-.18.05-.36.05-.54,0-8.62-3.28-17.31-9.84-23.87l-21.56-21.56c-.39-.39-.39-1.03,0-1.42l1.87-1.87c.39-.39,1.03-.39,1.42,0l21.56,21.56c6.56,6.56,15.25,9.85,23.87,9.84.18,0,.36-.05.54-.05,8.5-.08,16.91-3.37,23.33-9.8l23.04-22.95.14-.14,1.85-1.85s.01-.01.02-.01c.2-.16.44-.24.68-.24.02,0,.05,0,.08,0,.02,0,.04,0,.06,0,.04,0,.07.01.1.02.04,0,.07.02.1.03.03.01.06.02.09.04.03.01.06.03.09.05.09.05.17.11.25.18Z"/>
        <path class="cls-1" d="M205.52-7.18l1.67,1.67s.08.09.12.14h0c.09.14.16.28.18.44.02.12.02.25,0,.37h0c-.02.15-.08.3-.17.43t0,0c-.04.06-.09.12-.14.17l-.86.86-1.07,1.07-23.04,22.96c-6.62,6.63-9.91,15.19-9.84,23.87,0,8.62,3.28,17.31,9.85,23.87l45.43,45.43c.38.38.39,1.03,0,1.42l-1.87,1.87c-.39.39-1.03.39-1.42,0l-45.43-45.43c-6.56-6.56-15.25-9.85-23.87-9.85-8.69-.06-17.25,3.22-23.87,9.84l-24.99,24.99c-.38.38-1.03.38-1.41,0l-1.74-1.74c-.39-.39-.45-1.09-.06-1.48l24.99-24.99c6.43-6.43,9.72-14.83,9.8-23.33,0-.18.05-.36.05-.54,0-8.62-3.28-17.31-9.84-23.87L106.41-.57c-.39-.39-.39-1.03,0-1.42l1.87-1.87c.39-.39,1.03-.39,1.42,0l21.56,21.56c6.56,6.56,15.25,9.85,23.87,9.84.18,0,.36-.05.54-.05,8.5-.08,16.91-3.37,23.33-9.8l23.04-22.95.14-.14,1.85-1.85s.01-.01.02-.01c.2-.16.44-.24.68-.24.02,0,.05,0,.08,0,.02,0,.04,0,.06,0,.04,0,.07.01.1.02.04,0,.07.02.1.03.03.01.06.02.09.04.03.01.06.03.09.05.09.05.17.11.25.18Z"/>
        <path class="cls-1" d="M95.3-7.18l1.67,1.67s.08.09.12.14h0c.09.14.16.28.18.44.02.12.02.25,0,.37h0c-.02.15-.08.3-.17.43t0,0c-.04.06-.09.12-.14.17l-.86.86-1.07,1.07-23.04,22.96c-6.62,6.63-9.91,15.19-9.84,23.87,0,8.62,3.28,17.31,9.85,23.87l45.43,45.43c.38.38.39,1.03,0,1.42l-1.87,1.87c-.39.39-1.03.39-1.42,0l-45.43-45.43c-6.56-6.56-15.25-9.85-23.87-9.85-8.69-.06-17.25,3.22-23.87,9.84l-24.99,24.99c-.38.38-1.03.38-1.41,0l-1.74-1.74c-.39-.39-.45-1.09-.06-1.48l24.99-24.99c6.43-6.43,9.72-14.83,9.8-23.33,0-.18.05-.36.05-.54,0-8.62-3.28-17.31-9.84-23.87L-3.81-.57c-.39-.39-.39-1.03,0-1.42l1.87-1.87c.39-.39,1.03-.39,1.42,0l21.56,21.56c6.56,6.56,15.25,9.85,23.87,9.84.18,0,.36-.05.54-.05,8.5-.08,16.91-3.37,23.33-9.8l23.04-22.95.14-.14,1.85-1.85s.01-.01.02-.01c.2-.16.44-.24.68-.24.02,0,.05,0,.08,0,.02,0,.04,0,.06,0,.04,0,.07.01.1.02.04,0,.07.02.1.03.03.01.06.02.09.04.03.01.06.03.09.05.09.05.17.11.25.18Z"/>
        <path class="cls-1" d="M-14.92-7.18l1.67,1.67s.08.09.12.14h0c.09.14.16.28.18.44.02.12.02.25,0,.37h0c-.02.15-.08.3-.17.43t0,0c-.04.06-.09.12-.14.17l-.86.86-1.07,1.07-23.04,22.96c-6.62,6.63-9.91,15.19-9.84,23.87,0,8.62,3.28,17.31,9.85,23.87L7.21,114.1c.38.38.39,1.03,0,1.42l-1.87,1.87c-.39.39-1.03.39-1.42,0l-45.43-45.43c-6.56-6.56-15.25-9.85-23.87-9.85-8.69-.06-17.25,3.22-23.87,9.84l-24.99,24.99c-.38.38-1.03.38-1.41,0l-1.74-1.74c-.39-.39-.45-1.09-.06-1.48l24.99-24.99c6.43-6.43,9.72-14.83,9.8-23.33,0-.18.05-.36.05-.54,0-8.62-3.28-17.31-9.84-23.87L-114.02-.57c-.39-.39-.39-1.03,0-1.42l1.87-1.87c.39-.39,1.03-.39,1.42,0l21.56,21.56c6.56,6.56,15.25,9.85,23.87,9.84.18,0,.36-.05.54-.05,8.5-.08,16.91-3.37,23.33-9.8L-18.4-5.25l.14-.14,1.85-1.85s.01-.01.02-.01c.2-.16.44-.24.68-.24.02,0,.05,0,.08,0,.02,0,.04,0,.06,0,.04,0,.07.01.1.02.04,0,.07.02.1.03.03.01.06.02.09.04.03.01.06.03.09.05.09.05.17.11.25.18Z"/>
        <path class="cls-1" d="M205.52-117.35l1.67,1.67s.08.09.12.14h0c.09.14.16.28.18.44.02.12.02.25,0,.37h0c-.02.15-.08.3-.17.43t0,0c-.04.06-.09.12-.14.17l-.86.86-1.07,1.07-23.04,22.96c-6.62,6.63-9.91,15.19-9.84,23.87,0,8.62,3.28,17.31,9.85,23.87L227.64,3.93c.38.38.39,1.03,0,1.42l-1.87,1.87c-.39.39-1.03.39-1.42,0l-45.43-45.43c-6.56-6.56-15.25-9.85-23.87-9.85-8.69-.06-17.25,3.22-23.87,9.84l-24.99,24.99c-.38.38-1.03.38-1.41,0l-1.74-1.74c-.39-.39-.45-1.09-.06-1.48l24.99-24.99c6.43-6.43,9.72-14.83,9.8-23.33,0-.18.05-.36.05-.54,0-8.62-3.28-17.31-9.84-23.87l-21.56-21.56c-.39-.39-.39-1.03,0-1.42l1.87-1.87c.39-.39,1.03-.39,1.42,0l21.56,21.56c6.56,6.56,15.25,9.85,23.87,9.84.18,0,.36-.05.54-.05,8.5-.08,16.91-3.37,23.33-9.8l23.04-22.95.14-.14,1.85-1.85s.01-.01.02-.01c.2-.16.44-.24.68-.24.02,0,.05,0,.08,0,.02,0,.04,0,.06,0,.04,0,.07.01.1.02.04,0,.07.02.1.03.03.01.06.02.09.04.03.01.06.03.09.05.09.05.17.11.25.18Z"/>
        <path class="cls-1" d="M95.3-117.35l1.67,1.67s.08.09.12.14h0c.09.14.16.28.18.44.02.12.02.25,0,.37h0c-.02.15-.08.3-.17.43t0,0c-.04.06-.09.12-.14.17l-.86.86-1.07,1.07-23.04,22.96c-6.62,6.63-9.91,15.19-9.84,23.87,0,8.62,3.28,17.31,9.85,23.87L117.43,3.93c.38.38.39,1.03,0,1.42l-1.87,1.87c-.39.39-1.03.39-1.42,0l-45.43-45.43c-6.56-6.56-15.25-9.85-23.87-9.85-8.69-.06-17.25,3.22-23.87,9.84L-4.02-13.23c-.38.38-1.03.38-1.41,0l-1.74-1.74c-.39-.39-.45-1.09-.06-1.48l24.99-24.99c6.43-6.43,9.72-14.83,9.8-23.33,0-.18.05-.36.05-.54,0-8.62-3.28-17.31-9.84-23.87L-3.81-110.74c-.39-.39-.39-1.03,0-1.42l1.87-1.87c.39-.39,1.03-.39,1.42,0l21.56,21.56c6.56,6.56,15.25,9.85,23.87,9.84.18,0,.36-.05.54-.05,8.5-.08,16.91-3.37,23.33-9.8l23.04-22.95.14-.14,1.85-1.85s.01-.01.02-.01c.2-.16.44-.24.68-.24.02,0,.05,0,.08,0,.02,0,.04,0,.06,0,.04,0,.07.01.1.02.04,0,.07.02.1.03.03.01.06.02.09.04.03.01.06.03.09.05.09.05.17.11.25.18Z"/>
        <path class="cls-1" d="M-14.92-117.35l1.67,1.67s.08.09.12.14h0c.09.14.16.28.18.44.02.12.02.25,0,.37h0c-.02.15-.08.3-.17.43t0,0c-.04.06-.09.12-.14.17l-.86.86-1.07,1.07-23.04,22.96c-6.62,6.63-9.91,15.19-9.84,23.87,0,8.62,3.28,17.31,9.85,23.87L7.21,3.93c.38.38.39,1.03,0,1.42l-1.87,1.87c-.39.39-1.03.39-1.42,0l-45.43-45.43c-6.56-6.56-15.25-9.85-23.87-9.85-8.69-.06-17.25,3.22-23.87,9.84l-24.99,24.99c-.38.38-1.03.38-1.41,0l-1.74-1.74c-.39-.39-.45-1.09-.06-1.48l24.99-24.99c6.43-6.43,9.72-14.83,9.8-23.33,0-.18.05-.36.05-.54,0-8.62-3.28-17.31-9.84-23.87l-21.56-21.56c-.39-.39-.39-1.03,0-1.42l1.87-1.87c.39-.39,1.03-.39,1.42,0l21.56,21.56c6.56,6.56,15.25,9.85,23.87,9.84.18,0,.36-.05.54-.05,8.5-.08,16.91-3.37,23.33-9.8l23.04-22.95.14-.14,1.85-1.85s.01-.01.02-.01c.2-.16.44-.24.68-.24.02,0,.05,0,.08,0,.02,0,.04,0,.06,0,.04,0,.07.01.1.02.04,0,.07.02.1.03.03.01.06.02.09.04.03.01.06.03.09.05.09.05.17.11.25.18Z"/>
      </g>
    </pattern>
  </defs>
  <g id="Camada_1-2" data-name="Camada_1">
    <rect class="cls-2" width="1366" height="768"/>
  </g>
</svg>