<?xml version="1.0" encoding="UTF-8"?>
<svg id="Camada_2" xmlns="http://www.w3.org/2000/svg" viewBox="0 0 676.13 213.74">
  <defs>
    <style>
      .cls-1 {
        fill: #e89506;
        font-family: ChillaxVariable-Regular, 'Chillax Variable';
        font-size: 58.81px;
        font-variation-settings: 'wght' 400;
      }

      .cls-2 {
        fill: #103442;
      }
    </style>
  </defs>
  <g id="Camada_1-2" data-name="Camada_1">
    <g>
      <g>
        <path class="cls-2" d="M65.07,2.58c-.06,17.07-.12,34.13-.19,51.2-12.11.8-24.21,1.66-36.3,2.57.03-17.88.07-35.76.1-53.65C19.13,2.74,9.56,2.78,0,2.82,0,49.99,0,97.17,0,144.34c9.47-1.93,18.94-3.79,28.43-5.56.04-19.18.07-38.35.11-57.53,12.08-1.31,24.16-2.55,36.26-3.71-.07,18.3-.14,36.6-.2,54.9,9.52-1.56,19.04-3.04,28.58-4.44.2-41.84.39-83.67.59-125.51-9.56.03-19.13.06-28.69.09Z"/>
        <path class="cls-2" d="M136.3,71.16c11.39-.8,22.78-1.53,34.18-2.19.04-6.4.07-12.81.11-19.21-11.4.48-22.79,1.01-34.18,1.58.05-9.51.11-19.02.16-28.53,14.42-.32,28.83-.61,43.26-.87,1.1-6.57,2.2-13.12,3.3-19.65-25.17.05-50.34.1-75.51.17-.21,41.17-.42,82.35-.63,123.52,25.12-3.47,50.3-6.37,75.52-8.7.04-6.53.07-13.06.11-19.6-15.5,1.19-31,2.57-46.47,4.12.06-10.21.11-20.42.17-30.64Z"/>
        <path class="cls-2" d="M426.9,65.47c11.42.35,22.83.77,34.24,1.26-.03-6.2-.06-12.39-.09-18.59-11.4-.35-22.81-.65-34.22-.91-.03-8.75-.07-17.5-.1-26.25,14.43.14,28.86.32,43.28.53,1.03-6.41,2.06-12.83,3.09-19.26-25.17-.04-50.35-.07-75.52-.09.1,36.33.2,72.66.29,108.99,25.29.9,50.56,2.36,75.8,4.39-.03-6.44-.06-12.87-.1-19.31-15.52-1.04-31.04-1.9-46.57-2.59-.04-9.4-.07-18.79-.11-28.19Z"/>
        <path class="cls-2" d="M264.19,2.18c-11.7.01-23.4.02-35.1.04-12.57,37.16-25.19,75.12-37.83,114.27,10.07-.88,20.14-1.67,30.22-2.36,2.17-8.19,4.34-16.34,6.51-24.46,11.97-.62,23.94-1.13,35.92-1.55,2.11,7.8,4.22,15.58,6.33,23.34,10.33-.41,20.66-.73,30.99-.96-12.41-35.84-24.75-71.82-37.04-108.32ZM233.05,70.47c4.33-16.51,8.66-32.9,12.98-49.18,4.31,16.19,8.63,32.28,12.96,48.3-8.65.25-17.3.55-25.94.88Z"/>
        <path class="cls-2" d="M551.4,2.66c.09,16.28.17,32.56.26,48.84.08,14.26,1.22,29.17,4.13,45.6-12.3-32.71-24.63-64.12-36.94-94.52-12.03-.03-24.06-.05-36.09-.08.2,37.95.4,75.91.6,113.86,8.63.74,17.25,1.56,25.87,2.43-.08-14.18-.16-28.36-.24-42.53-.05-9.32-.45-17.5-1.19-24.23-.39-6.71-1.49-14.61-2.61-23.35,11.96,30.2,23.94,61.33,35.89,93.66,12.26,1.48,24.51,3.1,36.74,4.86-.2-41.49-.4-82.98-.6-124.47-8.61-.03-17.22-.05-25.83-.07Z"/>
        <path class="cls-2" d="M667.76,72.97c-5.7-7.15-14.43-13.39-26.19-18.57-6.39-2.79-11.1-5.06-14.13-6.89-3.37-1.84-5.39-3.58-6.74-5.6-1.01-1.68-1.7-4.3-1.71-6.9-.02-4.21,1.32-7.4,4.01-9.27,3.02-2.18,6.72-3.06,11.43-2.93,9.08.27,17.84,4.18,25.58,12.08,4.25-5.61,8.5-11.33,12.76-17.14-5.05-6.39-11.11-10.59-17.51-13.68C648.86,1.32,641.11,0,632.35,0c-8.08,0-15.15,1.32-21.54,4.49-6.39,2.86-11.42,6.93-15.1,12.53-3.34,5.29-5.33,11.8-5.3,18.99.04,9.08,2.77,17.03,8.51,23.77,5.4,6.39,14.5,12.56,27.27,18.08,5.71,2.53,10.08,4.99,13.1,6.99,3.02,2.33,5.37,4.62,6.38,7.1,1.34,2.18,2.02,5.29,2.03,8.66.01,5.05-1.66,8.85-5,11.02-3.34,2.51-7.69,3.17-13.38,2.33-5.69-.84-10.73-2.54-15.43-5.11-5.04-2.93-9.41-6.69-14.13-11.36-4.57,5.06-9.13,10.03-13.7,14.94,5.07,5.95,11.46,11.26,18.85,15.59,7.39,4.33,15.77,7.7,25.14,9.37,9.7,1.73,17.72,1.25,24.73-.84,6.68-2.49,12.01-6.67,15.68-12.63,3.67-5.96,5.68-13,5.67-21.75,0-12.26-3.01-22.1-8.38-29.2Z"/>
        <path class="cls-2" d="M387.69,2.16c-11.23,36.22-22.52,72.11-33.87,108.01-11.96-.11-23.92-.1-35.87.05-11.69-35.88-23.32-71.78-34.89-108.06,10.15,0,20.3-.01,30.45-.01,4.1,15.71,8.21,31.39,12.32,47.06,3.58,13.62,7.16,27.24,10.75,40.87,3.12-12.59,6.23-25.16,9.34-37.74,4.13-16.72,8.26-33.44,12.37-50.19,9.8,0,19.59,0,29.39.01Z"/>
      </g>
      <text class="cls-1" transform="translate(456.93 194.51)"><tspan x="0" y="0">studio</tspan></text>
    </g>
  </g>
</svg>