<?xml version="1.0" encoding="UTF-8"?>
<svg id="Camada_2" xmlns="http://www.w3.org/2000/svg" viewBox="0 0 583.7 680.25">
  <defs>
    <style>
      .cls-1 {
        fill: #fffcf9;
      }

      .cls-2 {
        fill: #e89506;
      }
    </style>
  </defs>
  <g id="Camada_1-2" data-name="Camada_1">
    <g>
      <path class="cls-2" d="M266.12,46.69v15.62c-72.94,9.23-139.1,59.67-165.3,128.72-7.15,18.21-11.56,37.4-13.16,56.79h-26.85c12.55-115.09,104.68-192.17,205.31-201.13Z"/>
      <path class="cls-2" d="M513.5,247.82h-2.84c-11.23-99.11-93.77-179.53-193.31-186.6v-14.23c48,4.98,95.66,26.09,135.55,66.46,35.05,36.08,56.68,84.46,60.59,134.37Z"/>
    </g>
    <path class="cls-1" d="M583.7,267.61v9.5c0,.25-.02.49-.06.72h0c-.11.66-.36,1.26-.72,1.78-.28.41-.63.77-1.03,1.07h-.01c-.5.37-1.08.63-1.7.75t-.02.01c-.29.06-.59.09-.89.09h-10.97s-131.07-.26-131.07-.26c-37.76.01-71.5,15.04-96.06,39.97-24.57,24.57-39.97,58.68-39.97,96.08v258.9c0,2.19-1.83,4.03-4.04,4.03h-10.63c-2.21,0-4.04-1.84-4.04-4.03v-258.9c0-37.4-15.4-71.51-39.97-96.08-24.57-24.93-58.31-39.97-96.07-39.97H4.02c-2.19,0-4.02-1.83-4.02-4.03v-9.91c0-2.2,1.83-4.39,4.02-4.39h142.43c36.62,0,69.95-14.57,94.4-38.58.52-.51,1.16-.88,1.67-1.4,24.57-24.56,39.97-58.67,39.97-96.07V4.04c0-2.2,1.83-4.04,4.04-4.04h10.63c2.21,0,4.04,1.84,4.04,4.04v122.85c0,37.4,15.4,71.51,39.97,96.07.52.52,1.15.89,1.67,1.4,24.45,24.01,57.78,38.58,94.4,38.58l131.06.25h.82l10.55.02s.06,0,.09.01c1.03.11,1.95.57,2.64,1.26.07.07.15.15.22.23.05.06.1.12.14.18.09.12.17.23.24.35.08.12.14.24.21.37.06.12.12.25.17.37.05.13.1.26.14.4.12.39.18.8.18,1.23Z"/>
  </g>
</svg>