<?xml version="1.0" encoding="UTF-8"?>
<svg id="Camada_2" xmlns="http://www.w3.org/2000/svg" viewBox="0 0 676.13 680.87">
  <defs>
    <style>
      .cls-1 {
        fill: #fffcf9;
      }

      .cls-2 {
        fill: #e89506;
      }
    </style>
  </defs>
  <g id="Camada_1-2" data-name="Camada_1">
    <g>
      <g>
        <path class="cls-1" d="M65.07,376.05c-.06,17.07-.13,34.13-.19,51.2-12.11.8-24.2,1.66-36.3,2.57.03-17.88.07-35.76.1-53.65-9.56.03-19.13.07-28.69.11,0,47.17,0,94.35,0,141.52,9.47-1.93,18.94-3.79,28.43-5.56.04-19.18.07-38.35.11-57.53,12.07-1.31,24.16-2.55,36.25-3.71-.07,18.3-.14,36.6-.2,54.9,9.52-1.56,19.04-3.04,28.58-4.44.2-41.84.39-83.67.59-125.51-9.56.03-19.13.06-28.69.09Z"/>
        <path class="cls-1" d="M136.3,444.63c11.39-.8,22.78-1.53,34.18-2.19.04-6.4.07-12.81.11-19.21-11.4.48-22.79,1.01-34.18,1.58.05-9.51.1-19.02.16-28.53,14.42-.32,28.84-.61,43.26-.87,1.1-6.57,2.2-13.12,3.3-19.65-25.17.05-50.34.1-75.51.17-.21,41.17-.42,82.35-.63,123.52,25.12-3.47,50.3-6.37,75.52-8.7.04-6.53.07-13.06.11-19.6-15.51,1.19-31,2.57-46.47,4.12.06-10.21.11-20.42.17-30.64Z"/>
        <path class="cls-1" d="M426.9,438.94c11.42.35,22.83.77,34.24,1.26-.03-6.2-.06-12.39-.09-18.59-11.4-.35-22.81-.65-34.22-.91-.03-8.75-.07-17.5-.1-26.25,14.43.14,28.85.32,43.28.53,1.03-6.41,2.06-12.83,3.09-19.26-25.17-.04-50.34-.07-75.52-.09.1,36.33.2,72.66.29,108.99,25.29.9,50.56,2.36,75.8,4.39-.03-6.44-.07-12.87-.1-19.31-15.52-1.04-31.04-1.9-46.57-2.59-.04-9.4-.07-18.79-.11-28.19Z"/>
        <path class="cls-1" d="M264.19,375.65c-11.7.01-23.4.02-35.1.04-12.57,37.16-25.19,75.12-37.83,114.27,10.07-.88,20.14-1.67,30.22-2.36,2.17-8.19,4.34-16.34,6.51-24.46,11.97-.62,23.94-1.13,35.92-1.55,2.11,7.8,4.22,15.58,6.33,23.34,10.33-.41,20.66-.73,30.99-.96-12.41-35.84-24.75-71.82-37.04-108.32ZM233.05,443.94c4.33-16.51,8.66-32.9,12.98-49.18,4.31,16.19,8.63,32.28,12.96,48.3-8.65.25-17.3.55-25.94.88Z"/>
        <path class="cls-1" d="M551.4,376.12c.09,16.28.18,32.56.26,48.84.08,14.26,1.22,29.17,4.13,45.6-12.3-32.71-24.63-64.12-36.94-94.52-12.03-.03-24.06-.05-36.09-.08.2,37.95.4,75.91.6,113.86,8.63.74,17.25,1.56,25.87,2.43-.08-14.18-.16-28.36-.24-42.53-.05-9.32-.45-17.5-1.19-24.23-.39-6.71-1.5-14.61-2.61-23.35,11.96,30.2,23.94,61.33,35.9,93.66,12.26,1.48,24.51,3.1,36.74,4.86-.2-41.49-.4-82.98-.61-124.47-8.61-.03-17.22-.05-25.83-.08Z"/>
        <path class="cls-1" d="M667.76,446.44c-5.7-7.15-14.43-13.39-26.19-18.57-6.39-2.79-11.1-5.06-14.13-6.89-3.36-1.84-5.39-3.58-6.74-5.6-1.02-1.68-1.7-4.3-1.71-6.9-.01-4.21,1.32-7.4,4.01-9.27,3.02-2.18,6.72-3.06,11.43-2.93,9.08.27,17.84,4.18,25.57,12.08,4.25-5.61,8.5-11.33,12.76-17.14-5.05-6.39-11.11-10.59-17.51-13.68-6.4-2.76-14.15-4.08-22.91-4.08-8.08,0-15.15,1.32-21.54,4.49-6.39,2.86-11.42,6.93-15.1,12.53-3.34,5.29-5.33,11.8-5.3,18.99.04,9.08,2.77,17.03,8.51,23.77,5.41,6.39,14.5,12.56,27.26,18.08,5.71,2.53,10.07,4.99,13.1,6.99,3.02,2.33,5.37,4.62,6.38,7.1,1.34,2.18,2.02,5.29,2.03,8.66,0,5.05-1.66,8.85-5,11.02-3.34,2.51-7.69,3.17-13.38,2.33-5.7-.84-10.72-2.54-15.43-5.11-5.04-2.93-9.41-6.69-14.13-11.36-4.57,5.06-9.13,10.03-13.7,14.94,5.06,5.95,11.46,11.26,18.85,15.59,7.39,4.33,15.77,7.7,25.14,9.37,9.7,1.73,17.72,1.25,24.73-.84,6.67-2.49,12.01-6.67,15.68-12.63,3.67-5.96,5.67-13,5.67-21.75,0-12.26-3.01-22.1-8.38-29.2Z"/>
        <path class="cls-1" d="M387.69,375.63c-11.23,36.22-22.52,72.11-33.87,108.01-11.96-.11-23.92-.1-35.87.05-11.69-35.88-23.32-71.78-34.89-108.06,10.15,0,20.3-.01,30.45-.01,4.1,15.71,8.21,31.39,12.32,47.06,3.58,13.62,7.16,27.24,10.75,40.87,3.12-12.59,6.23-25.16,9.34-37.74,4.13-16.72,8.26-33.44,12.37-50.19,9.8,0,19.59,0,29.39.01Z"/>
      </g>
      <g>
        <path class="cls-2" d="M310.79,46.69v15.62c-72.94,9.23-139.1,59.67-165.3,128.72-7.15,18.21-11.56,37.4-13.16,56.79h-26.85c12.55-115.09,104.68-192.17,205.31-201.13Z"/>
        <path class="cls-2" d="M557.94,247.81h-2.24c-11.23-99.11-94.14-179.53-193.68-186.6v-14.23c48,4.98,95.66,26.09,135.55,66.46,35.05,36.08,56.46,84.46,60.37,134.37Z"/>
      </g>
      <g>
        <path class="cls-1" d="M327.47,511.03c2.51-.5,5.66-.91,9.29-.9,3.51.01,6.56.41,9.01.9v165.83c0,2.18-1.8,4.01-3.96,4.01h-10.41c-2.16,0-3.94-1.83-3.94-4.01v-165.83Z"/>
        <path class="cls-1" d="M628.25,267.68v9.37c0,.28-.03.56-.08.82-.12.66-.38,1.26-.76,1.78-.26.38-.59.72-.97.99-.64.49-1.41.8-2.25.88h-.03s-.07,0-.1.01c-.1,0-.2.01-.3.01h-132.57c-40.2.01-76.12,15.05-102.27,40.01-8.33,7.84-15.68,16.64-21.81,26.21-1.18,1.83-3.22,2.92-5.39,2.92h-50.64c-2.17,0-4.21-1.09-5.39-2.92-6.13-9.57-13.48-18.37-21.81-26.21-26.15-24.96-62.07-40.01-102.28-40.01H48.84c-2.34,0-4.29-1.83-4.29-4.04v-9.91c0-2.2,1.95-4.4,4.29-4.4h132.76c38.99,0,74.48-14.58,100.51-38.61.55-.52,1.23-.88,1.77-1.4,26.16-24.59,42.56-58.74,42.56-96.17V4.04c0-2.2,1.95-4.04,4.3-4.04h11.32c2.35,0,4.3,1.84,4.3,4.04v122.97c0,37.43,16.4,71.58,42.56,96.17.55.52,1.22.88,1.78,1.4,26.02,24.03,61.51,38.61,100.51,38.61h132.55c.11,0,.22.01.33.01.04,0,.09.01.13.01.73.08,1.41.32,1.99.7.07.05.14.1.2.14.09.07.18.14.26.22.11.09.21.19.31.29.1.1.19.21.28.32.09.12.17.23.25.35.16.23.3.48.4.74.05.13.1.26.14.4.05.13.08.27.11.41.03.14.05.29.07.44.01.15.02.3.02.46Z"/>
      </g>
    </g>
  </g>
</svg>